{
  "title": "X-Men.Days.Of.Future.Past.2014.HD-TS.XVID.AC3.HQ.Hive-CM8",
  "uid": 10346696,
  "size": 1891976309,
  "categoryP": "video",
  "categoryS": "movies",
  "magnet": "?xt=urn:btih:7f5523d8880fb423b9546af73c2419a2f3cb2ae8&amp;dn=X-Men.Days.Of.Future.Past.2014.HD-TS.XVID.AC3.HQ.Hive-CM8&amp;tr=udp%3A%2F%2Ftracker.openbittorrent.com%3A80&amp;tr=udp%3A%2F%2Fopen.demonii.com%3A1337&amp;tr=udp%3A%2F%2Ftracker.coppersurfer.tk%3A6969&amp;tr=udp%3A%2F%2Fexodus.desync.com%3A6969",
  "seeders": 266,
  "leechers": 48,
  "uploader": "xxxlavalxxx",
  "files": -1,
  "time": 1402617548,
  "description": "[IMG]http://i.imgur.com/LleWpRJ.jpg[/IMG]\n\n &lt;a href=&quot;\nhttp://www.imdb.com/title/tt1877832/&quot; rel=&quot;nofollow&quot; target=&quot;_NEW&quot;&gt;\nhttp://www.imdb.com/title/tt1877832/&lt;/a&gt;\n\n\nThe X-Men send Wolverine to the past in a desperate effort to change history and prevent an event that results in doom for both humans and mutants.\n\nDirector: Bryan Singer\nWriters: Simon Kinberg (screenplay), Jane Goldman (story)\nStars: Patrick Stewart, Ian McKellen, Hugh Jackman\nGenres: Action | Adventure | Fantasy | Sci-Fi\n\n\n\nX-Men.Days.Of.Future.Past.2014.HD-TS.XVID.AC3.HQ.Hive-CM8\n\nThx Hive\n\nCM8 Doing It Right The First Time\n\nSources: \n\nVideo: Original Chinese 720p HDCam\n\nAudio: Millenium/Echo\nthx\n\nNotes:\n\nOriginal Cam was better than whats out, noticed it got watermarked from runtime 2min to 4mins\nThat logo was moving from left to right screen for 2mins, kinda annoying.\nAs usual the cam was dark, especially the first 17mins which are at night, after that its good.\nalso the colours were jumping around, some scene have hardly any colour, next low some ok-ish.\n\nEncode:\n\nNoticed quickly there is no way to do one setting for whole movie, had to cut it into pieces\naround 20 were necessary, \nthey all needed brightening up differently, enhancing colours and adjusting colouring manually afterwards scene by scene\nwas a mess to find a way through all pieces to get faces looking natural, got nice in the end.\ntook me cpl hours, even got rid of that watermark,which wasnt easy consider i wanted to make it unnoticable\n\nsubs for foreign parts are hardcoded\n\nAudio is lipsync and very nice line\ngot very nice \nenjoy\n\n\nVideo: 720x304 @bitrate 1700 2pass\nAudio: English AC3 2.0 Line\nSample: yes 2 included\n\n\n &lt;a href=&quot;\nhttp://www.imdb.com/title/tt1877832/&quot; rel=&quot;nofollow&quot; target=&quot;_NEW&quot;&gt;\nhttp://www.imdb.com/title/tt1877832/&lt;/a&gt;\n\n\nGeneral\nComplete name                  : X-Men.Days.Of.Future.Past.2014.HD-TS.XVID.AC3.HQ.Hive-CM8.avi\nFormat                         : AVI\nFormat/Info                    : Audio Video Interleave\nFile size                      : 1.74 GiB\nDuration                       : 2h 6mn\nOverall bit rate               : 1 965 Kbps\nWriting application            : Nandub v1.0rc2\nWriting library                : Nandub build 1853/release\n\nVideo\nID                             : 0\nFormat                         : MPEG-4 Visual\nFormat profile                 : Advanced Simple@L5\nFormat settings, BVOP          : 2\nFormat settings, QPel          : Yes\nFormat settings, GMC           : No warppoints\nFormat settings, Matrix        : Default (H.263)\nMuxing mode                    : Packed bitstream\nCodec ID                       : XVID\nCodec ID/Hint                  : XviD\nDuration                       : 2h 6mn\nBit rate                       : 1 700 Kbps\nWidth                          : 720 pixels\nHeight                         : 304 pixels\nDisplay aspect ratio           : 2.35:1\nFrame rate                     : 25.000 fps\nColor space                    : YUV\nChroma subsampling             : 4:2:0\nBit depth                      : 8 bits\nScan type                      : Progressive\nCompression mode               : Lossy\nBits/(Pixel*Frame)             : 0.311\nStream size                    : 1.50 GiB (86%)\nWriting library                : XviD 1.2.1 (UTC 2008-12-04)\n\nAudio\nID                             : 1\nFormat                         : AC-3\nFormat/Info                    : Audio Coding 3\nMode extension                 : CM (complete main)\nFormat settings, Endianness    : Big\nCodec ID                       : 2000\nDuration                       : 2h 6mn\nBit rate mode                  : Constant\nBit rate                       : 256 Kbps\nChannel(s)                     : 2 channels\nChannel positions              : Front: L R\nSampling rate                  : 48.0 KHz\nBit depth                      : 16 bits\nCompression mode               : Lossy\nStream size                    : 232 MiB (13%)\nAlignment                      : Split accross interleaves\nInterleave, duration           : 40 ms (1.00 video frame)\nInterleave, preload duration   : 500 ms\n\n\n\n\nscreens\n &lt;a href=&quot;\nhttp://i.imgur.com/cEY45gW.png&quot; rel=&quot;nofollow&quot; target=&quot;_NEW&quot;&gt;\nhttp://i.imgur.com/cEY45gW.png&lt;/a&gt; &lt;a href=&quot;\nhttp://i.imgur.com/qkcziel.png&quot; rel=&quot;nofollow&quot; target=&quot;_NEW&quot;&gt;\nhttp://i.imgur.com/qkcziel.png&lt;/a&gt; &lt;a href=&quot;\nhttp://i.imgur.com/SJBOAhg.png&quot; rel=&quot;nofollow&quot; target=&quot;_NEW&quot;&gt;\nhttp://i.imgur.com/SJBOAhg.png&lt;/a&gt; &lt;a href=&quot;\nhttp://i.imgur.com/HJJWXhz.png&quot; rel=&quot;nofollow&quot; target=&quot;_NEW&quot;&gt;\nhttp://i.imgur.com/HJJWXhz.png&lt;/a&gt; &lt;a href=&quot;\nhttp://i.imgur.com/0RVRuhm.png&quot; rel=&quot;nofollow&quot; target=&quot;_NEW&quot;&gt;\nhttp://i.imgur.com/0RVRuhm.png&lt;/a&gt; &lt;a href=&quot;\nhttp://i.imgur.com/IqMJCMw.png&quot; rel=&quot;nofollow&quot; target=&quot;_NEW&quot;&gt;\nhttp://i.imgur.com/IqMJCMw.png&lt;/a&gt; &lt;a href=&quot;\nhttp://i.imgur.com/orxpsPJ.png&quot; rel=&quot;nofollow&quot; target=&quot;_NEW&quot;&gt;\nhttp://i.imgur.com/orxpsPJ.png&lt;/a&gt;",
  "parsed": {
    "xt": "urn:btih:7f5523d8880fb423b9546af73c2419a2f3cb2ae8",
    "dn": "X-Men.Days.Of.Future.Past.2014.HD-TS.XVID.AC3.HQ.Hive-CM8",
    "tr": [
      "udp://exodus.desync.com:6969",
      "udp://open.demonii.com:1337",
      "udp://tracker.coppersurfer.tk:6969",
      "udp://tracker.openbittorrent.com:80"
    ],
    "infoHash": "7f5523d8880fb423b9546af73c2419a2f3cb2ae8",
    "infoHashBuffer": {
      "type": "Buffer",
      "data": [
        127,
        85,
        35,
        216,
        136,
        15,
        180,
        35,
        185,
        84,
        106,
        247,
        60,
        36,
        25,
        162,
        243,
        203,
        42,
        232
      ]
    },
    "name": "X-Men.Days.Of.Future.Past.2014.HD-TS.XVID.AC3.HQ.Hive-CM8",
    "announce": [
      "udp://exodus.desync.com:6969",
      "udp://open.demonii.com:1337",
      "udp://tracker.coppersurfer.tk:6969",
      "udp://tracker.openbittorrent.com:80"
    ],
    "urlList": []
  },
  "previous": 63,
  "peers": 113,
  "last_updated": "2016-12-27T05:08:12.656Z"
}